<svg xmlns="http://www.w3.org/2000/svg" viewBox="0 0 100 100" width="100" height="100">
  <defs>
    <linearGradient id="grad" x1="0%" y1="0%" x2="100%" y2="100%">
      <stop offset="0%" style="stop-color:#4f46e5;stop-opacity:1" />
      <stop offset="100%" style="stop-color:#7c3aed;stop-opacity:1" />
    </linearGradient>
  </defs>

  <!-- Background rounded square -->
  <rect width="100" height="100" rx="20" ry="20" fill="url(#grad)" />

  <!-- QR code pattern — top-left finder pattern -->
  <rect x="14" y="14" width="22" height="22" rx="4" fill="white"/>
  <rect x="18" y="18" width="14" height="14" rx="2" fill="url(#grad)"/>
  <rect x="21" y="21" width="8" height="8" rx="1" fill="white"/>

  <!-- QR code pattern — top-right finder pattern -->
  <rect x="64" y="14" width="22" height="22" rx="4" fill="white"/>
  <rect x="68" y="18" width="14" height="14" rx="2" fill="url(#grad)"/>
  <rect x="71" y="21" width="8" height="8" rx="1" fill="white"/>

  <!-- QR code pattern — bottom-left finder pattern -->
  <rect x="14" y="64" width="22" height="22" rx="4" fill="white"/>
  <rect x="18" y="68" width="14" height="14" rx="2" fill="url(#grad)"/>
  <rect x="21" y="71" width="8" height="8" rx="1" fill="white"/>

  <!-- Data modules (center pattern) -->
  <rect x="42" y="14" width="5" height="5" rx="1" fill="white"/>
  <rect x="50" y="14" width="5" height="5" rx="1" fill="white"/>
  <rect x="42" y="22" width="5" height="5" rx="1" fill="white"/>
  <rect x="50" y="22" width="5" height="5" rx="1" fill="white"/>
  <rect x="58" y="22" width="5" height="5" rx="1" fill="white"/>

  <rect x="14" y="42" width="5" height="5" rx="1" fill="white"/>
  <rect x="22" y="42" width="5" height="5" rx="1" fill="white"/>
  <rect x="30" y="42" width="5" height="5" rx="1" fill="white"/>
  <rect x="14" y="50" width="5" height="5" rx="1" fill="white"/>
  <rect x="30" y="50" width="5" height="5" rx="1" fill="white"/>
  <rect x="14" y="58" width="5" height="5" rx="1" fill="white"/>
  <rect x="22" y="58" width="5" height="5" rx="1" fill="white"/>

  <rect x="42" y="42" width="5" height="5" rx="1" fill="white"/>
  <rect x="50" y="42" width="5" height="5" rx="1" fill="white"/>
  <rect x="58" y="42" width="5" height="5" rx="1" fill="white"/>
  <rect x="42" y="50" width="5" height="5" rx="1" fill="white"/>
  <rect x="58" y="50" width="5" height="5" rx="1" fill="white"/>
  <rect x="42" y="58" width="5" height="5" rx="1" fill="white"/>
  <rect x="50" y="58" width="5" height="5" rx="1" fill="white"/>
  <rect x="58" y="58" width="5" height="5" rx="1" fill="white"/>

  <rect x="64" y="42" width="5" height="5" rx="1" fill="white"/>
  <rect x="72" y="42" width="5" height="5" rx="1" fill="white"/>
  <rect x="80" y="42" width="5" height="5" rx="1" fill="white"/>
  <rect x="64" y="50" width="5" height="5" rx="1" fill="white"/>
  <rect x="80" y="50" width="5" height="5" rx="1" fill="white"/>
  <rect x="64" y="58" width="5" height="5" rx="1" fill="white"/>
  <rect x="72" y="58" width="5" height="5" rx="1" fill="white"/>
  <rect x="80" y="58" width="5" height="5" rx="1" fill="white"/>

  <rect x="42" y="64" width="5" height="5" rx="1" fill="white"/>
  <rect x="50" y="64" width="5" height="5" rx="1" fill="white"/>
  <rect x="58" y="64" width="5" height="5" rx="1" fill="white"/>
  <rect x="42" y="72" width="5" height="5" rx="1" fill="white"/>
  <rect x="58" y="72" width="5" height="5" rx="1" fill="white"/>
  <rect x="42" y="80" width="5" height="5" rx="1" fill="white"/>
  <rect x="50" y="80" width="5" height="5" rx="1" fill="white"/>
  <rect x="58" y="80" width="5" height="5" rx="1" fill="white"/>
</svg>
