<svg xmlns="http://www.w3.org/2000/svg" viewBox="0 0 1200 630" width="1200" height="630">
  <defs>
    <linearGradient id="bg" x1="0%" y1="0%" x2="100%" y2="100%">
      <stop offset="0%" style="stop-color:#0f172a"/>
      <stop offset="100%" style="stop-color:#1e1b4b"/>
    </linearGradient>
    <linearGradient id="accent" x1="0%" y1="0%" x2="100%" y2="100%">
      <stop offset="0%" style="stop-color:#4f46e5"/>
      <stop offset="100%" style="stop-color:#7c3aed"/>
    </linearGradient>
    <linearGradient id="pill" x1="0%" y1="0%" x2="100%" y2="0%">
      <stop offset="0%" style="stop-color:#4f46e5;stop-opacity:0.25"/>
      <stop offset="100%" style="stop-color:#7c3aed;stop-opacity:0.25"/>
    </linearGradient>
  </defs>

  <!-- Background -->
  <rect width="1200" height="630" fill="url(#bg)"/>

  <!-- Subtle grid lines -->
  <g stroke="#ffffff" stroke-opacity="0.03" stroke-width="1">
    <line x1="0" y1="105" x2="1200" y2="105"/>
    <line x1="0" y1="210" x2="1200" y2="210"/>
    <line x1="0" y1="315" x2="1200" y2="315"/>
    <line x1="0" y1="420" x2="1200" y2="420"/>
    <line x1="0" y1="525" x2="1200" y2="525"/>
    <line x1="150" y1="0" x2="150" y2="630"/>
    <line x1="300" y1="0" x2="300" y2="630"/>
    <line x1="450" y1="0" x2="450" y2="630"/>
    <line x1="600" y1="0" x2="600" y2="630"/>
    <line x1="750" y1="0" x2="750" y2="630"/>
    <line x1="900" y1="0" x2="900" y2="630"/>
    <line x1="1050" y1="0" x2="1050" y2="630"/>
  </g>

  <!-- Glow blob -->
  <ellipse cx="850" cy="315" rx="320" ry="280" fill="#4f46e5" fill-opacity="0.12"/>

  <!-- Left side: QR code illustration -->
  <g transform="translate(80, 115)">
    <!-- Outer container -->
    <rect width="300" height="300" rx="24" fill="#1e293b" stroke="#334155" stroke-width="1.5"/>

    <!-- Top-left finder -->
    <rect x="24" y="24" width="80" height="80" rx="10" fill="#4f46e5"/>
    <rect x="36" y="36" width="56" height="56" rx="6" fill="#1e293b"/>
    <rect x="48" y="48" width="32" height="32" rx="3" fill="#4f46e5"/>

    <!-- Top-right finder -->
    <rect x="196" y="24" width="80" height="80" rx="10" fill="#4f46e5"/>
    <rect x="208" y="36" width="56" height="56" rx="6" fill="#1e293b"/>
    <rect x="220" y="48" width="32" height="32" rx="3" fill="#4f46e5"/>

    <!-- Bottom-left finder -->
    <rect x="24" y="196" width="80" height="80" rx="10" fill="#4f46e5"/>
    <rect x="36" y="208" width="56" height="56" rx="6" fill="#1e293b"/>
    <rect x="48" y="220" width="32" height="32" rx="3" fill="#4f46e5"/>

    <!-- Center logo background -->
    <rect x="115" y="115" width="70" height="70" rx="12" fill="#4f46e5"/>
    <!-- QR icon in center -->
    <text x="150" y="158" text-anchor="middle" font-size="36" fill="white" font-family="monospace">⬡</text>

    <!-- Data dots -->
    <rect x="124" y="24" width="12" height="12" rx="2" fill="#7c3aed"/>
    <rect x="140" y="24" width="12" height="12" rx="2" fill="#4f46e5"/>
    <rect x="156" y="24" width="12" height="12" rx="2" fill="#7c3aed"/>
    <rect x="124" y="40" width="12" height="12" rx="2" fill="#4f46e5"/>
    <rect x="156" y="40" width="12" height="12" rx="2" fill="#4f46e5"/>
    <rect x="140" y="56" width="12" height="12" rx="2" fill="#7c3aed"/>

    <rect x="24" y="124" width="12" height="12" rx="2" fill="#7c3aed"/>
    <rect x="40" y="124" width="12" height="12" rx="2" fill="#4f46e5"/>
    <rect x="56" y="124" width="12" height="12" rx="2" fill="#7c3aed"/>
    <rect x="24" y="140" width="12" height="12" rx="2" fill="#4f46e5"/>
    <rect x="56" y="140" width="12" height="12" rx="2" fill="#4f46e5"/>
    <rect x="40" y="156" width="12" height="12" rx="2" fill="#7c3aed"/>

    <rect x="196" y="124" width="12" height="12" rx="2" fill="#4f46e5"/>
    <rect x="212" y="124" width="12" height="12" rx="2" fill="#7c3aed"/>
    <rect x="228" y="124" width="12" height="12" rx="2" fill="#4f46e5"/>
    <rect x="260" y="124" width="12" height="12" rx="2" fill="#7c3aed"/>
    <rect x="196" y="140" width="12" height="12" rx="2" fill="#7c3aed"/>
    <rect x="244" y="140" width="12" height="12" rx="2" fill="#4f46e5"/>
    <rect x="196" y="156" width="12" height="12" rx="2" fill="#4f46e5"/>
    <rect x="212" y="156" width="12" height="12" rx="2" fill="#4f46e5"/>
    <rect x="260" y="156" width="12" height="12" rx="2" fill="#7c3aed"/>

    <rect x="196" y="196" width="12" height="12" rx="2" fill="#7c3aed"/>
    <rect x="212" y="196" width="12" height="12" rx="2" fill="#4f46e5"/>
    <rect x="244" y="196" width="12" height="12" rx="2" fill="#7c3aed"/>
    <rect x="260" y="196" width="12" height="12" rx="2" fill="#4f46e5"/>
    <rect x="196" y="212" width="12" height="12" rx="2" fill="#4f46e5"/>
    <rect x="228" y="212" width="12" height="12" rx="2" fill="#4f46e5"/>
    <rect x="244" y="212" width="12" height="12" rx="2" fill="#7c3aed"/>
    <rect x="196" y="228" width="12" height="12" rx="2" fill="#7c3aed"/>
    <rect x="260" y="228" width="12" height="12" rx="2" fill="#4f46e5"/>
    <rect x="196" y="244" width="12" height="12" rx="2" fill="#4f46e5"/>
    <rect x="212" y="244" width="12" height="12" rx="2" fill="#7c3aed"/>
    <rect x="228" y="244" width="12" height="12" rx="2" fill="#4f46e5"/>
    <rect x="260" y="244" width="12" height="12" rx="2" fill="#7c3aed"/>

    <rect x="124" y="196" width="12" height="12" rx="2" fill="#4f46e5"/>
    <rect x="140" y="196" width="12" height="12" rx="2" fill="#7c3aed"/>
    <rect x="156" y="196" width="12" height="12" rx="2" fill="#4f46e5"/>
    <rect x="124" y="212" width="12" height="12" rx="2" fill="#7c3aed"/>
    <rect x="156" y="212" width="12" height="12" rx="2" fill="#7c3aed"/>
    <rect x="124" y="228" width="12" height="12" rx="2" fill="#4f46e5"/>
    <rect x="140" y="228" width="12" height="12" rx="2" fill="#4f46e5"/>
    <rect x="124" y="244" width="12" height="12" rx="2" fill="#7c3aed"/>
    <rect x="140" y="244" width="12" height="12" rx="2" fill="#4f46e5"/>
    <rect x="156" y="244" width="12" height="12" rx="2" fill="#7c3aed"/>
  </g>

  <!-- Right side: Text content -->
  <!-- "FREE" badge -->
  <rect x="460" y="115" width="90" height="32" rx="16" fill="url(#pill)" stroke="#4f46e5" stroke-opacity="0.5" stroke-width="1"/>
  <text x="505" y="136" text-anchor="middle" font-family="Inter, system-ui, sans-serif" font-size="13" font-weight="700" fill="#818cf8" letter-spacing="2">FREE</text>

  <!-- Main headline -->
  <text x="460" y="215" font-family="Inter, system-ui, sans-serif" font-size="62" font-weight="800" fill="white" letter-spacing="-1">QR Code</text>
  <text x="460" y="285" font-family="Inter, system-ui, sans-serif" font-size="62" font-weight="800" fill="white" letter-spacing="-1">Generator</text>

  <!-- Tagline -->
  <text x="460" y="340" font-family="Inter, system-ui, sans-serif" font-size="22" fill="#94a3b8">No signup · No ads · No expiry · 15+ types</text>

  <!-- Feature pills row 1 -->
  <rect x="460" y="375" width="100" height="34" rx="17" fill="#1e293b" stroke="#334155" stroke-width="1"/>
  <text x="510" y="397" text-anchor="middle" font-family="Inter, system-ui, sans-serif" font-size="13" fill="#94a3b8">URL</text>

  <rect x="572" y="375" width="100" height="34" rx="17" fill="#1e293b" stroke="#334155" stroke-width="1"/>
  <text x="622" y="397" text-anchor="middle" font-family="Inter, system-ui, sans-serif" font-size="13" fill="#94a3b8">WiFi</text>

  <rect x="684" y="375" width="120" height="34" rx="17" fill="#1e293b" stroke="#334155" stroke-width="1"/>
  <text x="744" y="397" text-anchor="middle" font-family="Inter, system-ui, sans-serif" font-size="13" fill="#94a3b8">vCard</text>

  <rect x="816" y="375" width="140" height="34" rx="17" fill="#1e293b" stroke="#334155" stroke-width="1"/>
  <text x="886" y="397" text-anchor="middle" font-family="Inter, system-ui, sans-serif" font-size="13" fill="#94a3b8">WhatsApp</text>

  <rect x="968" y="375" width="100" height="34" rx="17" fill="#1e293b" stroke="#334155" stroke-width="1"/>
  <text x="1018" y="397" text-anchor="middle" font-family="Inter, system-ui, sans-serif" font-size="13" fill="#94a3b8">UPI</text>

  <!-- Feature pills row 2 -->
  <rect x="460" y="422" width="120" height="34" rx="17" fill="#1e293b" stroke="#334155" stroke-width="1"/>
  <text x="520" y="444" text-anchor="middle" font-family="Inter, system-ui, sans-serif" font-size="13" fill="#94a3b8">Barcode</text>

  <rect x="592" y="422" width="130" height="34" rx="17" fill="#1e293b" stroke="#334155" stroke-width="1"/>
  <text x="657" y="444" text-anchor="middle" font-family="Inter, system-ui, sans-serif" font-size="13" fill="#94a3b8">+ Logo</text>

  <rect x="734" y="422" width="170" height="34" rx="17" fill="#1e293b" stroke="#334155" stroke-width="1"/>
  <text x="819" y="444" text-anchor="middle" font-family="Inter, system-ui, sans-serif" font-size="13" fill="#94a3b8">PNG · SVG · PDF</text>

  <rect x="916" y="422" width="152" height="34" rx="17" fill="#4f46e5" fill-opacity="0.2" stroke="#4f46e5" stroke-opacity="0.5" stroke-width="1"/>
  <text x="992" y="444" text-anchor="middle" font-family="Inter, system-ui, sans-serif" font-size="13" fill="#818cf8">15+ types</text>

  <!-- Domain badge -->
  <text x="460" y="530" font-family="Inter, system-ui, sans-serif" font-size="20" font-weight="600" fill="#475569">freeqr.world</text>

  <!-- Download CTA button -->
  <rect x="780" y="500" width="320" height="56" rx="28" fill="url(#accent)"/>
  <text x="940" y="534" text-anchor="middle" font-family="Inter, system-ui, sans-serif" font-size="18" font-weight="700" fill="white">Generate Free QR →</text>
</svg>
